<svg xmlns="http://www.w3.org/2000/svg" width="26.327" height="24.918" viewBox="0 0 26.327 24.918">
    <g>
        <g>
            <path fill="#2a3649" d="M23.863 16.168a8.426 8.426 0 0 0-11.9 0l-10.2 10.2a6.012 6.012 0 0 0 8.5 8.5l9.352-9.352a3.607 3.607 0 1 0-5.1-5.1L8.4 26.534a1.2 1.2 0 1 0 1.7 1.7l6.116-6.116a1.2 1.2 0 1 1 1.7 1.7L8.56 33.171a3.607 3.607 0 0 1-5.1-5.1l10.2-10.2a6.011 6.011 0 1 1 8.5 8.5l-10.2 10.2a1.2 1.2 0 0 0 1.7 1.7l10.2-10.2a8.416 8.416 0 0 0 0-11.9z" transform="translate(-.001 -13.707) translate(.001 13.707) translate(-.001 -13.707)"/>
        </g>
    </g>
</svg>
