<svg xmlns="http://www.w3.org/2000/svg" width="14.251" height="13.136" viewBox="0 0 14.251 13.136">
    <defs>
        <style>
            .cls-1{fill:#5f2cff}
        </style>
    </defs>
    <g id="Group_7976">
        <g id="Group_7974" transform="translate(7)">
            <path id="iconfinder_right_arrow_next_forward_navigation_3994400" d="M6.925 7.409l-5.438 5.473a.8.8 0 0 1-1.277-.14A1.257 1.257 0 0 1 .326 11.2l4.6-4.632-4.6-4.632A1.257 1.257 0 0 1 .21.394a.8.8 0 0 1 1.277-.14l5.438 5.473a1.249 1.249 0 0 1 0 1.682z" class="cls-1"/>
        </g>
        <g id="Group_7975">
            <path id="iconfinder_right_arrow_next_forward_navigation_3994400-2" d="M6.925 7.409l-5.438 5.473a.8.8 0 0 1-1.277-.14A1.257 1.257 0 0 1 .326 11.2l4.6-4.632-4.6-4.632A1.257 1.257 0 0 1 .21.394a.8.8 0 0 1 1.277-.14l5.438 5.473a1.249 1.249 0 0 1 0 1.682z" class="cls-1"/>
        </g>
    </g>
</svg>
