<svg xmlns="http://www.w3.org/2000/svg" width="8.372" height="8.316" viewBox="0 0 8.372 8.316">
    <defs>
        <style>
            .cls-1{fill:#0d0c22}
        </style>
    </defs>
    <g id="Layer_2" transform="rotate(90 4.186 4.186)">
        <path id="Path_6391" d="M4.353 4.52L8.222.647a.392.392 0 0 0-.553-.553L4.118 3.645.669.2a.392.392 0 0 0-.553 0 .392.392 0 0 0 0 .557L3.883 4.52a.333.333 0 0 0 .47 0z" class="cls-1"/>
        <path id="Path_6392" d="M4.351 4.52L8.22.647a.392.392 0 0 0-.553-.553L4.116 3.645.667.2a.392.392 0 0 0-.553 0 .392.392 0 0 0 0 .553L3.881 4.52a.333.333 0 0 0 .47 0z" class="cls-1" transform="translate(.002 3.755)"/>
    </g>
</svg>
