<svg xmlns="http://www.w3.org/2000/svg" width="12.459" height="14.622" viewBox="0 0 12.459 14.622">
    <defs>
        <style>
            .cls-1{fill:#00bb58}
        </style>
    </defs>
    <g id="_1060430" transform="translate(-37.863)">
        <g id="Group_8310" transform="translate(37.863)">
            <g id="Group_8309">
                <path id="Path_7159" d="M50.315 2.438v-.013c0-.013 0-.027-.007-.04l-.008-.023c0-.011 0-.021-.008-.032s-.011-.037-.017-.056l-.006-.017v-.013l-.011-.027V2.21l-.015-.031-.017-.033-.026-.037-.021-.031-.022-.029-.022-.026v-.005l-.035-.036-.005-.005-.029-.029-.938-.867-.942-.867-.039-.034-.009-.007a.8.8 0 0 0-.089-.061l-.061-.033-.012-.005-.055-.023h-.006a.8.8 0 0 0-.136-.036A.81.81 0 0 0 47.64 0h-5.008a.921.921 0 0 0-.92.92v6.1h-.048a3.8 3.8 0 1 0 3.623 4.952H49.4a.921.921 0 0 0 .92-.92V2.539a.788.788 0 0 0-.005-.101zM48.014.832l1.5 1.386h-1.36a.141.141 0 0 1-.141-.141zM44.842 11.4a3.2 3.2 0 0 1-.16.571 3.23 3.23 0 1 1-3.018-4.381h.048a3.231 3.231 0 0 1 3.13 3.809zm4.909-.349a.349.349 0 0 1-.349.349h-3.981a3.8 3.8 0 0 0-3.138-4.33V.92a.349.349 0 0 1 .349-.349h4.811v1.507a.713.713 0 0 0 .712.712h1.6z" class="cls-1" transform="translate(-37.863)"/>
                <path id="Path_7160" d="M77.529 283.939a2.734 2.734 0 0 0-.571-.076h-.073a2.74 2.74 0 0 0-2.35 4.149.286.286 0 0 0 .49-.294 2.169 2.169 0 0 1 1.86-3.283h.073a2.168 2.168 0 0 1-.073 4.335 2.189 2.189 0 0 1-.3-.02.286.286 0 1 0-.078.566 2.742 2.742 0 0 0 2.874-1.589 2.739 2.739 0 0 0-1.853-3.788z" class="cls-1" transform="translate(-73.109 -275.755)"/>
                <path id="Path_7161" d="M239.1 124.758a.286.286 0 0 0 0 .571h4.262a.286.286 0 1 0 0-.571z" class="cls-1" transform="translate(-233.079 -121.195)"/>
                <path id="Path_7162" d="M242.508 188.683a.286.286 0 0 0-.286-.286H239.1a.286.286 0 0 0 0 .571h3.119a.286.286 0 0 0 .289-.285z" class="cls-1" transform="translate(-233.079 -183.017)"/>
                <path id="Path_7163" d="M294.7 252.036h-2.753a.286.286 0 1 0 0 .571h2.753a.286.286 0 1 0 0-.571z" class="cls-1" transform="translate(-284.41 -244.838)"/>
                <path id="Path_7164" d="M320.663 315.674h-1.989a.286.286 0 1 0 0 .571h1.989a.286.286 0 0 0 0-.571z" class="cls-1" transform="translate(-310.377 -306.659)"/>
                <path id="Path_7165" d="M134.944 326.532h.959a.286.286 0 0 0 0-.571h-.795l-.091-.157-.573-.989a.286.286 0 0 0-.494.286l.747 1.288a.286.286 0 0 0 .247.143z" class="cls-1" transform="translate(-131.168 -315.401)"/>
                <path id="Path_7166" d="M112.488 441.161a.284.284 0 0 0-.026-.049.279.279 0 0 0-.079-.079.284.284 0 0 0-.049-.026.272.272 0 0 0-.053-.016.284.284 0 0 0-.165.016.292.292 0 0 0-.049.026.285.285 0 0 0-.079.079.284.284 0 0 0-.026.049.289.289 0 0 0-.016.053.282.282 0 0 0-.005.056.289.289 0 0 0 .005.056.3.3 0 0 0 .016.053.29.29 0 0 0 .026.049.283.283 0 0 0 .079.079.287.287 0 0 0 .049.026.28.28 0 0 0 .053.016.286.286 0 0 0 .056.006.28.28 0 0 0 .056-.006.267.267 0 0 0 .053-.016.279.279 0 0 0 .049-.026.277.277 0 0 0 .079-.079.29.29 0 0 0 .026-.049.305.305 0 0 0 .016-.053.286.286 0 0 0 .006-.056.281.281 0 0 0-.006-.056.288.288 0 0 0-.016-.053z" class="cls-1" transform="translate(-109.824 -428.391)"/>
                <path id="Path_7167" d="M388.6 188.041a.293.293 0 0 0-.026-.049.278.278 0 0 0-.079-.079.288.288 0 0 0-.049-.026.284.284 0 0 0-.165-.016.288.288 0 0 0-.053.016.3.3 0 0 0-.049.026.283.283 0 0 0-.043.035.275.275 0 0 0-.036.043.289.289 0 0 0-.042.1.276.276 0 0 0-.005.056.285.285 0 0 0 .005.056.3.3 0 0 0 .016.053.3.3 0 0 0 .026.049.277.277 0 0 0 .036.043.277.277 0 0 0 .093.062.283.283 0 0 0 .109.022.28.28 0 0 0 .056-.005.284.284 0 0 0 .053-.016.293.293 0 0 0 .049-.026.287.287 0 0 0 .043-.036.272.272 0 0 0 .035-.043.3.3 0 0 0 .026-.049.308.308 0 0 0 .016-.053.285.285 0 0 0 .006-.056.281.281 0 0 0-.006-.056.293.293 0 0 0-.016-.051z" class="cls-1" transform="translate(-378.05 -182.5)"/>
            </g>
        </g>
    </g>
</svg>
