<svg xmlns="http://www.w3.org/2000/svg" width="32.704" height="32.704" viewBox="0 0 32.704 32.704">
    <defs>
        <filter id="fkde3e6hca" width="32.704" height="32.704" x="0" y="0" filterUnits="userSpaceOnUse">
            <feOffset dy="3"/>
            <feGaussianBlur result="blur" stdDeviation="3"/>
            <feFlood flood-color="#fff"/>
            <feComposite in2="blur" operator="in"/>
            <feComposite in="SourceGraphic"/>
        </filter>
    </defs>
    <g filter="url(#fkde3e6hca)">
        <path fill="#acacac" d="M74.18 134.221a3.967 3.967 0 1 0-1.162 2.8 3.813 3.813 0 0 0 1.162-2.8zm4.524 7.352a1.147 1.147 0 0 1-1.131 1.131 1.05 1.05 0 0 1-.8-.336l-3.031-3.022a6.051 6.051 0 0 1-3.526 1.1 6.113 6.113 0 0 1-2.417-.49 6.092 6.092 0 0 1-3.314-3.314 6.2 6.2 0 0 1 0-4.834 6.092 6.092 0 0 1 3.315-3.318 6.2 6.2 0 0 1 4.834 0 6.092 6.092 0 0 1 3.314 3.314 6.113 6.113 0 0 1 .49 2.417 6.051 6.051 0 0 1-1.1 3.526l3.031 3.031a1.083 1.083 0 0 1 .331.795z" transform="translate(-55 -122)"/>
    </g>
</svg>
