<svg xmlns="http://www.w3.org/2000/svg" id="Component_22_17" width="19.837" height="19.837" viewBox="0 0 19.837 19.837">
    <defs>
        <style>
            .cls-1{fill:#6a6a6a}
        </style>
    </defs>
    <g id="_747989">
        <g id="Group_85">
            <g id="Group_84">
                <path id="Path_6086" d="M16.932 2.905A9.919 9.919 0 0 0 2.905 16.932a9.923 9.923 0 0 0 12.146 1.476.775.775 0 0 0-.8-1.326 8.443 8.443 0 1 1 2.621-2.519.775.775 0 0 0 1.288.861 9.894 9.894 0 0 0-1.225-12.52z" class="cls-1"/>
            </g>
        </g>
        <g id="Group_87" transform="translate(6.71 6.822)">
            <g id="Group_86">
                <path id="Path_6087" d="M159.535 76a.551.551 0 0 0-.551.551v4.178l-2.02 2.02a.551.551 0 0 0 .779.779l2.181-2.181a.551.551 0 0 0 .161-.389v-4.407a.551.551 0 0 0-.55-.551z" class="cls-1" transform="translate(-155.775 -76.59)"/>
            </g>
        </g>
    </g>
</svg>
