<svg xmlns="http://www.w3.org/2000/svg" width="24.059" height="27.373" viewBox="0 0 24.059 27.373">
    <defs>
        <style>
            .cls-1{fill:#2a3649}
        </style>
    </defs>
    <g id="_456212" transform="translate(-31)">
        <g id="Group_8194" transform="translate(35.812)">
            <g id="Group_8193">
                <path id="Path_6557" d="M128.218 0a7.218 7.218 0 1 0 7.218 7.218A7.226 7.226 0 0 0 128.218 0z" class="cls-1" transform="translate(-121)"/>
            </g>
        </g>
        <g id="Group_8196" transform="translate(31 16.039)">
            <g id="Group_8195">
                <path id="Path_6558" d="M52.009 303.111A10.289 10.289 0 0 0 44.633 300h-3.208a10.289 10.289 0 0 0-7.376 3.111A10.518 10.518 0 0 0 31 310.532a.8.8 0 0 0 .8.8h22.457a.8.8 0 0 0 .8-.8 10.518 10.518 0 0 0-3.048-7.421z" class="cls-1" transform="translate(-31 -300)"/>
            </g>
        </g>
    </g>
</svg>
